<svg width="500" height="500" viewBox="0 0 500 500" fill="none" xmlns="http://www.w3.org/2000/svg">
<rect width="500" height="500" rx="150" fill="#00D1B2"/>
<circle cx="250" cy="250" r="170" fill="white"/>
<path d="M231 264.844C231 263.525 231.521 262.259 232.451 261.323L313.386 179.745C317.191 175.911 323.53 179.997 321.609 185.046L292.31 262.02C292.117 262.527 291.843 262.998 291.499 263.417L239.862 326.221C236.882 329.846 231 327.739 231 323.046V264.844Z" fill="#B4B4B4"/>
<path d="M150.999 263.967C145.733 263.967 144.045 256.877 148.746 254.504L321.135 167.475C324.802 165.624 329.013 168.739 328.316 172.786L308.027 290.724C307.477 293.919 304.079 295.754 301.106 294.462L231.888 264.382C231.259 264.108 230.581 263.967 229.895 263.967H150.999Z" fill="#E3E3E3"/>
</svg>
